<svg xmlns="http://www.w3.org/2000/svg" width="20" height="20" viewBox="0 0 20 20" fill="none">
  <path d="M10 0C4.477 0 0 4.477 0 10c0 1.76.457 3.413 1.257 4.852L0 20l5.29-1.218A9.953 9.953 0 0010 20c5.523 0 10-4.477 10-10S15.523 0 10 0z" fill="white"/>
  <path d="M10 1.5C5.313 1.5 1.5 5.313 1.5 10c0 1.588.44 3.073 1.2 4.34L1.5 18.5l4.24-1.17A8.46 8.46 0 0010 18.5c4.687 0 8.5-3.813 8.5-8.5S14.687 1.5 10 1.5z" fill="white"/>
  <path d="M14.346 12.072c-.197-.099-1.166-.575-1.347-.641-.18-.066-.312-.099-.443.099-.131.197-.509.641-.624.772-.115.131-.23.148-.427.05-.197-.1-.832-.307-1.585-.978-.586-.522-.981-1.167-1.096-1.364-.115-.197-.012-.304.086-.402.089-.088.197-.23.296-.345.099-.115.131-.197.197-.328.066-.132.033-.247-.017-.345-.05-.1-.443-1.069-.607-1.463-.16-.384-.322-.332-.443-.338l-.378-.007a.725.725 0 00-.525.247c-.18.197-.69.674-.69 1.643s.706 1.905.805 2.037c.099.131 1.39 2.122 3.369 2.977.47.203.838.325 1.124.415.473.15.903.129 1.243.078.379-.057 1.166-.477 1.331-.937.165-.46.165-.854.115-.937-.05-.082-.181-.131-.378-.23z" fill="#00BA33"/>
</svg>
